<svg width="400" height="400" viewBox="0 0 400 400" xmlns="http://www.w3.org/2000/svg">
  <!-- Face -->
  <circle cx="200" cy="180" r="120" fill="#ffdbac" />
  
  <!-- Hair -->
  <path d="M320 180 Q 300 100, 200 100 Q 100 100, 80 180 Q 100 120, 200 120 Q 300 120, 320 180 Z" fill="#8B4513" />
  
  <!-- Eyes -->
  <ellipse cx="160" cy="160" rx="15" ry="10" fill="#FFFFFF" />
  <ellipse cx="240" cy="160" rx="15" ry="10" fill="#FFFFFF" />
  <circle cx="160" cy="160" r="7" fill="#2E1503" />
  <circle cx="240" cy="160" r="7" fill="#2E1503" />
  
  <!-- Eyebrows -->
  <path d="M145 140 Q 160 130, 175 140" fill="none" stroke="#8B4513" stroke-width="3" />
  <path d="M225 140 Q 240 130, 255 140" fill="none" stroke="#8B4513" stroke-width="3" />
  
  <!-- Nose -->
  <path d="M200 170 Q 210 190, 200 200" fill="none" stroke="#FFC6A0" stroke-width="3" />
  
  <!-- Mouth -->
  <path d="M170 220 Q 200 240, 230 220" fill="none" stroke="#FF9B85" stroke-width="3" />
  
  <!-- Ears -->
  <path d="M80 170 Q 70 180, 80 200 Q 90 190, 80 170" fill="#ffdbac" />
  <path d="M320 170 Q 330 180, 320 200 Q 310 190, 320 170" fill="#ffdbac" />
  
  <!-- Shirt collar -->
  <path d="M120 300 Q 200 320, 280 300 L 260 350 Q 200 370, 140 350 Z" fill="#3498db" />
</svg>