<svg width="32" height="32" viewBox="0 0 100 100" fill="none" xmlns="http://www.w3.org/2000/svg"><svg width="32" height="32" viewBox="0 0 32 32" fill="none" xmlns="http://www.w3.org/2000/svg"><svg width="32" height="32" viewBox="0 0 32 32" fill="none" xmlns="http://www.w3.org/2000/svg"><?xml version="1.0" standalone="no"?>

  <defs>

    <linearGradient id="heartGradient" x1="0%" y1="0%" x2="100%" y2="100%">  <defs>

      <stop offset="0%" style="stop-color: #3B82F6; stop-opacity: 1" />

      <stop offset="20%" style="stop-color: #8B5CF6; stop-opacity: 1" />    <linearGradient id="heartGradient" x1="0%" y1="0%" x2="100%" y2="100%">  <defs><!DOCTYPE svg PUBLIC "-//W3C//DTD SVG 20010904//EN"

      <stop offset="40%" style="stop-color: #EC4899; stop-opacity: 1" />

      <stop offset="60%" style="stop-color: #F97316; stop-opacity: 1" />      <stop offset="0%" style="stop-color: #3B82F6; stop-opacity: 1" />

      <stop offset="80%" style="stop-color: #EAB308; stop-opacity: 1" />

      <stop offset="100%" style="stop-color: #22C55E; stop-opacity: 1" />      <stop offset="20%" style="stop-color: #8B5CF6; stop-opacity: 1" />    <linearGradient id="heartGradient" x1="0%" y1="0%" x2="100%" y2="100%"> "http://www.w3.org/TR/2001/REC-SVG-20010904/DTD/svg10.dtd">

    </linearGradient>

          <stop offset="40%" style="stop-color: #EC4899; stop-opacity: 1" />

    <radialGradient id="heartGlow" cx="50%" cy="30%" r="70%">

      <stop offset="0%" style="stop-color: #FFFFFF; stop-opacity: 0.3" />      <stop offset="60%" style="stop-color: #F97316; stop-opacity: 1" />      <stop offset="0%" style="stop-color: #3B82F6; stop-opacity: 1" /><svg version="1.0" xmlns="http://www.w3.org/2000/svg"

      <stop offset="100%" style="stop-color: #FFFFFF; stop-opacity: 0" />

    </radialGradient>      <stop offset="80%" style="stop-color: #EAB308; stop-opacity: 1" />

    

    <filter id="shadow" x="-20%" y="-20%" width="140%" height="140%">      <stop offset="100%" style="stop-color: #22C55E; stop-opacity: 1" />      <stop offset="20%" style="stop-color: #8B5CF6; stop-opacity: 1" /> width="300.000000pt" height="200.000000pt" viewBox="0 0 300.000000 200.000000"

      <feDropShadow dx="0" dy="2" stdDeviation="3" flood-color="#000000" flood-opacity="0.2"/>

    </filter>    </linearGradient>

  </defs>

      <radialGradient id="heartGlow" cx="50%" cy="30%" r="70%">      <stop offset="40%" style="stop-color: #EC4899; stop-opacity: 1" /> preserveAspectRatio="xMidYMid meet">

  <path 

    d="M50 85 C25 65, 10 45, 10 30 C10 20, 18 12, 28 12 C38 12, 50 20, 50 20 C50 20, 62 12, 72 12 C82 12, 90 20, 90 30 C90 45, 75 65, 50 85 Z"       <stop offset="0%" style="stop-color: #FFFFFF; stop-opacity: 0.3" />

    fill="url(#heartGradient)"

    filter="url(#shadow)"      <stop offset="100%" style="stop-color: #FFFFFF; stop-opacity: 0" />      <stop offset="60%" style="stop-color: #F97316; stop-opacity: 1" /><metadata>

  />

      </radialGradient>

  <path 

    d="M50 85 C25 65, 10 45, 10 30 C10 20, 18 12, 28 12 C38 12, 50 20, 50 20 C50 20, 62 12, 72 12 C82 12, 90 20, 90 30 C90 45, 75 65, 50 85 Z"     <filter id="faviconShadow" x="-20%" y="-20%" width="140%" height="140%">      <stop offset="80%" style="stop-color: #EAB308; stop-opacity: 1" />Created by potrace 1.10, written by Peter Selinger 2001-2011

    fill="url(#heartGlow)"

  />      <feDropShadow dx="0" dy="1" stdDeviation="1.5" floodColor="#000000" floodOpacity="0.15"/>

</svg>
    </filter>      <stop offset="100%" style="stop-color: #22C55E; stop-opacity: 1" /></metadata>

  </defs>

      </linearGradient><g transform="translate(0.000000,200.000000) scale(0.100000,-0.100000)"

  <!-- Heart shape optimized for favicon -->

  <path     <radialGradient id="heartGlow" cx="50%" cy="30%" r="70%">fill="#000000" stroke="none">

    d="M16 27.2 C8 20.8, 3.2 14.4, 3.2 9.6 C3.2 6.4, 5.76 3.84, 8.96 3.84 C12.16 3.84, 16 6.4, 16 6.4 C16 6.4, 19.84 3.84, 23.04 3.84 C26.24 3.84, 28.8 6.4, 28.8 9.6 C28.8 14.4, 24 20.8, 16 27.2 Z" 

    fill="url(#heartGradient)"      <stop offset="0%" style="stop-color: #FFFFFF; stop-opacity: 0.3" /><path d="M1426 1306 l-59 -23 66 -22 c64 -22 70 -22 114 -7 26 9 48 16 50 16

    filter="url(#faviconShadow)"

  />      <stop offset="100%" style="stop-color: #FFFFFF; stop-opacity: 0" />2 0 3 -13 3 -30 0 -16 4 -30 8 -30 4 0 6 16 4 35 -3 25 0 35 9 36 18 1 -101

  

  <!-- Highlight overlay -->    </radialGradient>48 -121 48 -8 0 -42 -11 -74 -23z"/>

  <path 

    d="M16 27.2 C8 20.8, 3.2 14.4, 3.2 9.6 C3.2 6.4, 5.76 3.84, 8.96 3.84 C12.16 3.84, 16 6.4, 16 6.4 C16 6.4, 19.84 3.84, 23.04 3.84 C26.24 3.84, 28.8 6.4, 28.8 9.6 C28.8 14.4, 24 20.8, 16 27.2 Z"   </defs><path d="M1260 1223 c-151 -136 -155 -361 -9 -500 64 -60 133 -65 188 -14 38

    fill="url(#heartGlow)"

  />  35 51 86 51 196 l0 89 -48 -47 c-26 -26 -53 -47 -60 -47 -8 0 -12 -17 -12 -48

  

  <!-- Favicon sparkles -->  <!-- Heart shape scaled for favicon -->0 -59 -20 -82 -72 -82 -28 0 -42 7 -62 30 -29 35 -56 116 -56 170 0 92 56 197

  <circle cx="8" cy="8" r="0.6" fill="#FFFFFF" opacity="0.9"/>

  <circle cx="24" cy="11" r="0.4" fill="#FFFFFF" opacity="0.7"/>  <path 130 246 22 15 39 32 37 38 -8 25 -37 14 -87 -31z m180 -453 c-12 -29 -57 -60

</svg>
    d="M16 27.2 C8 20.8, 3.2 14.4, 3.2 9.6 C3.2 6.4, 5.76 3.84, 8.96 3.84 C12.16 3.84, 16 6.4, 16 6.4 C16 6.4, 19.84 3.84, 23.04 3.84 C26.24 3.84, 28.8 6.4, 28.8 9.6 C28.8 14.4, 24 20.8, 16 27.2 Z" -88 -60 -35 0 -34 17 3 40 31 19 55 64 55 107 0 6 8 19 18 29 16 17 17 15 20

    fill="url(#heartGradient)"-36 2 -29 -2 -65 -8 -80z"/>

  /><path d="M1654 1259 c-3 -6 -2 -14 2 -18 5 -4 30 -24 56 -44 88 -70 127 -197

  94 -310 -23 -78 -57 -117 -105 -117 -51 0 -71 24 -71 83 0 30 -4 47 -12 47 -7

  <!-- Highlight overlay -->0 -34 21 -60 47 l-48 47 0 -100 c0 -122 22 -176 83 -207 59 -30 100 -17 169

  <path 53 46 47 60 70 77 125 25 80 26 124 5 195 -21 70 -52 117 -109 168 -49 43 -69

    d="M16 27.2 C8 20.8, 3.2 14.4, 3.2 9.6 C3.2 6.4, 5.76 3.84, 8.96 3.84 C12.16 3.84, 16 6.4, 16 6.4 C16 6.4, 19.84 3.84, 23.04 3.84 C26.24 3.84, 28.8 6.4, 28.8 9.6 C28.8 14.4, 24 20.8, 16 27.2 Z" 50 -81 31z m-73 -390 c4 -8 11 -27 14 -44 4 -16 24 -46 46 -67 35 -33 37 -37

    fill="url(#heartGlow)"19 -43 -29 -9 -56 2 -85 36 -20 25 -25 41 -25 86 0 54 13 67 31 32z"/>

  /><path d="M1420 1226 c0 -21 7 -27 40 -36 59 -16 120 2 120 35 0 29 -2 30 -41

  9 -30 -15 -39 -14 -101 11 -14 6 -18 2 -18 -19z"/>

  <!-- Small sparkles --><path d="M1407 1062 c-86 -87 -98 -107 -75 -130 22 -22 42 -12 105 50 l63 62

  <circle cx="8" cy="8" r="0.8" fill="#FFFFFF" opacity="0.8"/>63 -62 c69 -69 102 -79 113 -36 6 23 -4 37 -82 115 -49 49 -91 89 -94 89 -3 0

  <circle cx="24" cy="12" r="0.6" fill="#FFFFFF" opacity="0.6"/>-45 -39 -93 -88z m114 18 c10 -6 19 -15 19 -21 0 -6 -6 -7 -17 0 -10 5 -26 5

  <circle cx="20" cy="7" r="0.5" fill="#FFFFFF" opacity="0.7"/>-40 0 -27 -10 -30 -2 -5 17 21 16 19 16 43 4z"/>

</svg></g>
</svg>
